# Blender v2.79 (sub 0) OBJ File: 'Pointer.blend'
# www.blender.org
mtllib Pointer.mtl
o Cube_Cube.001
v -3.071510 3.105515 -9.944419
v -3.071511 -3.037505 -9.944419
v -1.571924 1.605928 2.678512
v -1.571924 -1.537920 2.678512
v 3.071509 3.105515 -9.944419
v 3.071509 -3.037505 -9.944421
v 1.571924 1.605928 2.678512
v 1.571924 -1.537920 2.678512
v -5.505972 0.034004 2.678512
v 5.505972 0.034004 2.678512
v 0.000001 0.034003 12.148521
v 0.000000 5.539977 2.678512
v 0.000000 -5.471969 2.678512
vn -0.9930 0.0000 0.1180
vn 0.0000 0.0000 -1.0000
vn 0.9930 -0.0000 0.1180
vn 0.0000 0.9930 0.1180
vn 0.0000 -0.9930 0.1180
vn -0.6540 -0.6540 0.3802
vn 0.6540 -0.6540 0.3802
vn 0.6540 0.6540 0.3802
vn -0.6540 0.6540 0.3802
usemtl None
s off
f 1//1 2//1 4//1 3//1
f 8//2 7//2 10//2
f 7//3 8//3 6//3 5//3
f 5//2 6//2 2//2 1//2
f 3//2 4//2 9//2
f 13//2 8//2 10//2
f 3//4 7//4 5//4 1//4
f 13//2 9//2 4//2
f 2//5 6//5 8//5 4//5
f 4//2 8//2 13//2
f 7//2 3//2 12//2
f 11//6 9//6 13//6
f 10//7 11//7 13//7
f 10//2 7//2 12//2
f 11//8 10//8 12//8
f 3//2 9//2 12//2
f 11//9 12//9 9//9
